<mxfile host="Electron" modified="2024-06-12T10:06:05.700Z" agent="Mozilla/5.0 (Windows NT 10.0; Win64; x64) AppleWebKit/537.36 (KHTML, like Gecko) draw.io/24.5.1 Chrome/124.0.6367.207 Electron/30.0.6 Safari/537.36" etag="lfn9o20qJcepgSBv_RUx" version="24.5.1" type="device">
  <diagram name="Page-1" id="vMHOj4DksXcgn6TkCxwS">
    <mxGraphModel dx="989" dy="577" grid="1" gridSize="10" guides="1" tooltips="1" connect="1" arrows="1" fold="1" page="1" pageScale="1" pageWidth="850" pageHeight="1100" math="0" shadow="0">
      <root>
        <mxCell id="0" />
        <mxCell id="1" parent="0" />
        <mxCell id="HLyuylRKE7OGvqLbNBZI-1" value="Input" style="rounded=1;whiteSpace=wrap;html=1;" vertex="1" parent="1">
          <mxGeometry x="70" y="140" width="40" height="40" as="geometry" />
        </mxCell>
        <mxCell id="HLyuylRKE7OGvqLbNBZI-2" value="N" style="rounded=1;whiteSpace=wrap;html=1;" vertex="1" parent="1">
          <mxGeometry x="70" y="220" width="40" height="40" as="geometry" />
        </mxCell>
        <mxCell id="HLyuylRKE7OGvqLbNBZI-3" value="Freq_sample" style="rounded=1;whiteSpace=wrap;html=1;" vertex="1" parent="1">
          <mxGeometry x="70" y="300" width="40" height="40" as="geometry" />
        </mxCell>
        <mxCell id="HLyuylRKE7OGvqLbNBZI-6" value="&lt;font style=&quot;font-size: 8px;&quot;&gt;Const&lt;/font&gt;" style="text;html=1;align=center;verticalAlign=middle;whiteSpace=wrap;rounded=0;" vertex="1" parent="1">
          <mxGeometry x="110" y="240" width="20" height="20" as="geometry" />
        </mxCell>
        <mxCell id="HLyuylRKE7OGvqLbNBZI-7" value="" style="rounded=1;whiteSpace=wrap;html=1;" vertex="1" parent="1">
          <mxGeometry x="180" y="140" width="160" height="120" as="geometry" />
        </mxCell>
        <mxCell id="HLyuylRKE7OGvqLbNBZI-8" value="Goertzel_Init" style="text;html=1;align=center;verticalAlign=middle;whiteSpace=wrap;rounded=0;" vertex="1" parent="1">
          <mxGeometry x="190" y="120" width="60" height="30" as="geometry" />
        </mxCell>
        <mxCell id="HLyuylRKE7OGvqLbNBZI-9" value="" style="endArrow=none;html=1;rounded=0;exitX=1;exitY=0.5;exitDx=0;exitDy=0;entryX=0;entryY=0.5;entryDx=0;entryDy=0;" edge="1" parent="1" source="HLyuylRKE7OGvqLbNBZI-2" target="HLyuylRKE7OGvqLbNBZI-7">
          <mxGeometry width="50" height="50" relative="1" as="geometry">
            <mxPoint x="120" y="230" as="sourcePoint" />
            <mxPoint x="260" y="250" as="targetPoint" />
            <Array as="points">
              <mxPoint x="140" y="240" />
              <mxPoint x="140" y="200" />
            </Array>
          </mxGeometry>
        </mxCell>
        <mxCell id="HLyuylRKE7OGvqLbNBZI-10" value="&lt;font style=&quot;font-size: 8px;&quot;&gt;Const&lt;/font&gt;" style="text;html=1;align=center;verticalAlign=middle;whiteSpace=wrap;rounded=0;" vertex="1" parent="1">
          <mxGeometry x="110" y="320" width="20" height="20" as="geometry" />
        </mxCell>
        <mxCell id="HLyuylRKE7OGvqLbNBZI-14" value="" style="endArrow=none;html=1;rounded=0;exitX=1;exitY=0.5;exitDx=0;exitDy=0;entryX=0;entryY=0.75;entryDx=0;entryDy=0;" edge="1" parent="1" source="HLyuylRKE7OGvqLbNBZI-3" target="HLyuylRKE7OGvqLbNBZI-7">
          <mxGeometry width="50" height="50" relative="1" as="geometry">
            <mxPoint x="180" y="250" as="sourcePoint" />
            <mxPoint x="230" y="200" as="targetPoint" />
            <Array as="points">
              <mxPoint x="160" y="320" />
              <mxPoint x="160" y="230" />
            </Array>
          </mxGeometry>
        </mxCell>
        <mxCell id="HLyuylRKE7OGvqLbNBZI-15" value="k" style="rounded=1;whiteSpace=wrap;html=1;" vertex="1" parent="1">
          <mxGeometry x="210" y="150" width="30" height="30" as="geometry" />
        </mxCell>
        <mxCell id="HLyuylRKE7OGvqLbNBZI-16" value="" style="endArrow=none;html=1;rounded=0;exitX=0;exitY=0.25;exitDx=0;exitDy=0;entryX=0;entryY=0.25;entryDx=0;entryDy=0;" edge="1" parent="1" source="HLyuylRKE7OGvqLbNBZI-15" target="HLyuylRKE7OGvqLbNBZI-7">
          <mxGeometry width="50" height="50" relative="1" as="geometry">
            <mxPoint x="230" y="230" as="sourcePoint" />
            <mxPoint x="280" y="180" as="targetPoint" />
            <Array as="points">
              <mxPoint x="190" y="170" />
            </Array>
          </mxGeometry>
        </mxCell>
        <mxCell id="HLyuylRKE7OGvqLbNBZI-17" value="" style="endArrow=none;html=1;rounded=0;exitX=0;exitY=0.5;exitDx=0;exitDy=0;entryX=0;entryY=0.5;entryDx=0;entryDy=0;" edge="1" parent="1" source="HLyuylRKE7OGvqLbNBZI-7" target="HLyuylRKE7OGvqLbNBZI-15">
          <mxGeometry width="50" height="50" relative="1" as="geometry">
            <mxPoint x="230" y="230" as="sourcePoint" />
            <mxPoint x="280" y="180" as="targetPoint" />
            <Array as="points">
              <mxPoint x="190" y="200" />
              <mxPoint x="190" y="180" />
            </Array>
          </mxGeometry>
        </mxCell>
        <mxCell id="HLyuylRKE7OGvqLbNBZI-18" value="" style="endArrow=none;html=1;rounded=0;exitX=0;exitY=0.75;exitDx=0;exitDy=0;entryX=0;entryY=0.75;entryDx=0;entryDy=0;" edge="1" parent="1" source="HLyuylRKE7OGvqLbNBZI-7" target="HLyuylRKE7OGvqLbNBZI-15">
          <mxGeometry width="50" height="50" relative="1" as="geometry">
            <mxPoint x="230" y="230" as="sourcePoint" />
            <mxPoint x="280" y="180" as="targetPoint" />
            <Array as="points">
              <mxPoint x="190" y="230" />
              <mxPoint x="200" y="180" />
            </Array>
          </mxGeometry>
        </mxCell>
        <mxCell id="HLyuylRKE7OGvqLbNBZI-19" value="coeff" style="rounded=1;whiteSpace=wrap;html=1;" vertex="1" parent="1">
          <mxGeometry x="330" y="160" width="20" height="20" as="geometry" />
        </mxCell>
        <mxCell id="HLyuylRKE7OGvqLbNBZI-42" value="" style="rounded=1;whiteSpace=wrap;html=1;" vertex="1" parent="1">
          <mxGeometry x="870" y="70" width="300" height="240" as="geometry" />
        </mxCell>
        <mxCell id="HLyuylRKE7OGvqLbNBZI-43" value="Goertzel_Final" style="text;html=1;align=center;verticalAlign=middle;whiteSpace=wrap;rounded=0;" vertex="1" parent="1">
          <mxGeometry x="890" y="50" width="60" height="30" as="geometry" />
        </mxCell>
        <mxCell id="HLyuylRKE7OGvqLbNBZI-49" value="real" style="rounded=1;whiteSpace=wrap;html=1;" vertex="1" parent="1">
          <mxGeometry x="1160" y="120" width="20" height="20" as="geometry" />
        </mxCell>
        <mxCell id="HLyuylRKE7OGvqLbNBZI-50" value="img" style="rounded=1;whiteSpace=wrap;html=1;" vertex="1" parent="1">
          <mxGeometry x="1160" y="170" width="20" height="20" as="geometry" />
        </mxCell>
        <mxCell id="HLyuylRKE7OGvqLbNBZI-51" value="mag" style="rounded=1;whiteSpace=wrap;html=1;" vertex="1" parent="1">
          <mxGeometry x="1160" y="225" width="20" height="20" as="geometry" />
        </mxCell>
        <mxCell id="HLyuylRKE7OGvqLbNBZI-52" value="" style="rounded=1;whiteSpace=wrap;html=1;" vertex="1" parent="1">
          <mxGeometry x="435" y="70" width="360" height="240" as="geometry" />
        </mxCell>
        <mxCell id="HLyuylRKE7OGvqLbNBZI-53" value="coeff" style="rounded=1;whiteSpace=wrap;html=1;" vertex="1" parent="1">
          <mxGeometry x="425" y="160" width="20" height="20" as="geometry" />
        </mxCell>
        <mxCell id="HLyuylRKE7OGvqLbNBZI-57" value="q1" style="rounded=1;whiteSpace=wrap;html=1;" vertex="1" parent="1">
          <mxGeometry x="585" y="130" width="20" height="20" as="geometry" />
        </mxCell>
        <mxCell id="HLyuylRKE7OGvqLbNBZI-58" value="q2" style="rounded=1;whiteSpace=wrap;html=1;" vertex="1" parent="1">
          <mxGeometry x="665" y="130" width="20" height="20" as="geometry" />
        </mxCell>
        <mxCell id="HLyuylRKE7OGvqLbNBZI-59" value="sample" style="rounded=1;whiteSpace=wrap;html=1;" vertex="1" parent="1">
          <mxGeometry x="425" y="200" width="20" height="20" as="geometry" />
        </mxCell>
        <mxCell id="HLyuylRKE7OGvqLbNBZI-60" value="" style="endArrow=none;html=1;rounded=0;exitX=1;exitY=0.5;exitDx=0;exitDy=0;" edge="1" parent="1" source="HLyuylRKE7OGvqLbNBZI-53" target="HLyuylRKE7OGvqLbNBZI-52">
          <mxGeometry width="50" height="50" relative="1" as="geometry">
            <mxPoint x="505" y="160" as="sourcePoint" />
            <mxPoint x="555" y="110" as="targetPoint" />
          </mxGeometry>
        </mxCell>
        <mxCell id="HLyuylRKE7OGvqLbNBZI-61" value="" style="endArrow=none;html=1;rounded=0;exitX=1;exitY=0.5;exitDx=0;exitDy=0;entryX=0.5;entryY=1;entryDx=0;entryDy=0;" edge="1" parent="1" source="HLyuylRKE7OGvqLbNBZI-53" target="HLyuylRKE7OGvqLbNBZI-62">
          <mxGeometry width="50" height="50" relative="1" as="geometry">
            <mxPoint x="505" y="160" as="sourcePoint" />
            <mxPoint x="555" y="110" as="targetPoint" />
            <Array as="points">
              <mxPoint x="555" y="170" />
            </Array>
          </mxGeometry>
        </mxCell>
        <mxCell id="HLyuylRKE7OGvqLbNBZI-62" value="*" style="ellipse;whiteSpace=wrap;html=1;" vertex="1" parent="1">
          <mxGeometry x="545" y="130" width="20" height="20" as="geometry" />
        </mxCell>
        <mxCell id="HLyuylRKE7OGvqLbNBZI-63" value="" style="endArrow=none;html=1;rounded=0;entryX=0;entryY=0.5;entryDx=0;entryDy=0;exitX=1;exitY=0.5;exitDx=0;exitDy=0;" edge="1" parent="1" source="HLyuylRKE7OGvqLbNBZI-62" target="HLyuylRKE7OGvqLbNBZI-57">
          <mxGeometry width="50" height="50" relative="1" as="geometry">
            <mxPoint x="505" y="160" as="sourcePoint" />
            <mxPoint x="555" y="110" as="targetPoint" />
          </mxGeometry>
        </mxCell>
        <mxCell id="HLyuylRKE7OGvqLbNBZI-65" value="-" style="ellipse;whiteSpace=wrap;html=1;" vertex="1" parent="1">
          <mxGeometry x="625" y="130" width="20" height="20" as="geometry" />
        </mxCell>
        <mxCell id="HLyuylRKE7OGvqLbNBZI-67" value="" style="endArrow=none;html=1;rounded=0;exitX=1;exitY=0.5;exitDx=0;exitDy=0;entryX=0;entryY=0.5;entryDx=0;entryDy=0;" edge="1" parent="1" source="HLyuylRKE7OGvqLbNBZI-57" target="HLyuylRKE7OGvqLbNBZI-65">
          <mxGeometry width="50" height="50" relative="1" as="geometry">
            <mxPoint x="505" y="160" as="sourcePoint" />
            <mxPoint x="555" y="110" as="targetPoint" />
          </mxGeometry>
        </mxCell>
        <mxCell id="HLyuylRKE7OGvqLbNBZI-69" value="" style="endArrow=none;html=1;rounded=0;entryX=1;entryY=0.5;entryDx=0;entryDy=0;exitX=0;exitY=0.5;exitDx=0;exitDy=0;" edge="1" parent="1" source="HLyuylRKE7OGvqLbNBZI-58" target="HLyuylRKE7OGvqLbNBZI-65">
          <mxGeometry width="50" height="50" relative="1" as="geometry">
            <mxPoint x="505" y="160" as="sourcePoint" />
            <mxPoint x="555" y="110" as="targetPoint" />
          </mxGeometry>
        </mxCell>
        <mxCell id="HLyuylRKE7OGvqLbNBZI-70" value="+" style="ellipse;whiteSpace=wrap;html=1;" vertex="1" parent="1">
          <mxGeometry x="715" y="130" width="20" height="20" as="geometry" />
        </mxCell>
        <mxCell id="HLyuylRKE7OGvqLbNBZI-71" value="" style="endArrow=none;html=1;rounded=0;exitX=1;exitY=0.5;exitDx=0;exitDy=0;entryX=0.5;entryY=1;entryDx=0;entryDy=0;" edge="1" parent="1" source="HLyuylRKE7OGvqLbNBZI-59" target="HLyuylRKE7OGvqLbNBZI-70">
          <mxGeometry width="50" height="50" relative="1" as="geometry">
            <mxPoint x="585" y="180" as="sourcePoint" />
            <mxPoint x="635" y="130" as="targetPoint" />
            <Array as="points">
              <mxPoint x="725" y="210" />
            </Array>
          </mxGeometry>
        </mxCell>
        <mxCell id="HLyuylRKE7OGvqLbNBZI-72" value="" style="endArrow=none;html=1;rounded=0;exitX=1;exitY=0.5;exitDx=0;exitDy=0;entryX=0;entryY=0.5;entryDx=0;entryDy=0;" edge="1" parent="1" source="HLyuylRKE7OGvqLbNBZI-58" target="HLyuylRKE7OGvqLbNBZI-70">
          <mxGeometry width="50" height="50" relative="1" as="geometry">
            <mxPoint x="585" y="180" as="sourcePoint" />
            <mxPoint x="635" y="130" as="targetPoint" />
          </mxGeometry>
        </mxCell>
        <mxCell id="HLyuylRKE7OGvqLbNBZI-73" value="" style="endArrow=none;html=1;rounded=0;entryX=1;entryY=0.5;entryDx=0;entryDy=0;exitX=1;exitY=0.5;exitDx=0;exitDy=0;" edge="1" parent="1" source="HLyuylRKE7OGvqLbNBZI-52" target="HLyuylRKE7OGvqLbNBZI-70">
          <mxGeometry width="50" height="50" relative="1" as="geometry">
            <mxPoint x="685" y="210" as="sourcePoint" />
            <mxPoint x="735" y="160" as="targetPoint" />
            <Array as="points">
              <mxPoint x="755" y="190" />
              <mxPoint x="755" y="140" />
            </Array>
          </mxGeometry>
        </mxCell>
        <mxCell id="HLyuylRKE7OGvqLbNBZI-74" value="Goertzel_Process" style="text;html=1;align=center;verticalAlign=middle;whiteSpace=wrap;rounded=0;" vertex="1" parent="1">
          <mxGeometry x="470" y="50" width="60" height="30" as="geometry" />
        </mxCell>
        <mxCell id="HLyuylRKE7OGvqLbNBZI-75" value="q0" style="rounded=1;whiteSpace=wrap;html=1;" vertex="1" parent="1">
          <mxGeometry x="785" y="180" width="20" height="20" as="geometry" />
        </mxCell>
        <mxCell id="HLyuylRKE7OGvqLbNBZI-76" value="" style="endArrow=none;html=1;rounded=0;entryX=1;entryY=0.5;entryDx=0;entryDy=0;exitX=1;exitY=0.75;exitDx=0;exitDy=0;" edge="1" parent="1" source="HLyuylRKE7OGvqLbNBZI-52" target="HLyuylRKE7OGvqLbNBZI-75">
          <mxGeometry width="50" height="50" relative="1" as="geometry">
            <mxPoint x="825" y="280" as="sourcePoint" />
            <mxPoint x="715" y="180" as="targetPoint" />
            <Array as="points">
              <mxPoint x="825" y="250" />
              <mxPoint x="825" y="190" />
            </Array>
          </mxGeometry>
        </mxCell>
        <mxCell id="HLyuylRKE7OGvqLbNBZI-79" value="" style="shape=trapezoid;perimeter=trapezoidPerimeter;whiteSpace=wrap;html=1;fixedSize=1;rotation=0;" vertex="1" parent="1">
          <mxGeometry x="565" y="220" width="60" height="20" as="geometry" />
        </mxCell>
        <mxCell id="HLyuylRKE7OGvqLbNBZI-80" value="" style="endArrow=none;html=1;rounded=0;entryX=1;entryY=0.75;entryDx=0;entryDy=0;exitX=0.75;exitY=1;exitDx=0;exitDy=0;" edge="1" parent="1" source="HLyuylRKE7OGvqLbNBZI-79" target="HLyuylRKE7OGvqLbNBZI-52">
          <mxGeometry width="50" height="50" relative="1" as="geometry">
            <mxPoint x="645" y="230" as="sourcePoint" />
            <mxPoint x="695" y="180" as="targetPoint" />
            <Array as="points">
              <mxPoint x="610" y="250" />
            </Array>
          </mxGeometry>
        </mxCell>
        <mxCell id="HLyuylRKE7OGvqLbNBZI-83" value="" style="shape=trapezoid;perimeter=trapezoidPerimeter;whiteSpace=wrap;html=1;fixedSize=1;rotation=90;" vertex="1" parent="1">
          <mxGeometry x="605" y="90" width="60" height="20" as="geometry" />
        </mxCell>
        <mxCell id="HLyuylRKE7OGvqLbNBZI-86" value="" style="endArrow=none;html=1;rounded=0;entryX=0.5;entryY=1;entryDx=0;entryDy=0;exitX=0.5;exitY=0;exitDx=0;exitDy=0;" edge="1" parent="1" source="HLyuylRKE7OGvqLbNBZI-79" target="HLyuylRKE7OGvqLbNBZI-57">
          <mxGeometry width="50" height="50" relative="1" as="geometry">
            <mxPoint x="635" y="210" as="sourcePoint" />
            <mxPoint x="685" y="160" as="targetPoint" />
          </mxGeometry>
        </mxCell>
        <mxCell id="HLyuylRKE7OGvqLbNBZI-87" value="" style="endArrow=none;html=1;rounded=0;entryX=0.75;entryY=1;entryDx=0;entryDy=0;exitX=0.5;exitY=0;exitDx=0;exitDy=0;" edge="1" parent="1" source="HLyuylRKE7OGvqLbNBZI-57" target="HLyuylRKE7OGvqLbNBZI-83">
          <mxGeometry width="50" height="50" relative="1" as="geometry">
            <mxPoint x="635" y="210" as="sourcePoint" />
            <mxPoint x="685" y="160" as="targetPoint" />
            <Array as="points">
              <mxPoint x="595" y="115" />
            </Array>
          </mxGeometry>
        </mxCell>
        <mxCell id="HLyuylRKE7OGvqLbNBZI-88" value="" style="endArrow=none;html=1;rounded=0;entryX=0.5;entryY=0;entryDx=0;entryDy=0;exitX=0.5;exitY=0;exitDx=0;exitDy=0;" edge="1" parent="1" source="HLyuylRKE7OGvqLbNBZI-58" target="HLyuylRKE7OGvqLbNBZI-83">
          <mxGeometry width="50" height="50" relative="1" as="geometry">
            <mxPoint x="635" y="210" as="sourcePoint" />
            <mxPoint x="685" y="160" as="targetPoint" />
            <Array as="points">
              <mxPoint x="675" y="100" />
            </Array>
          </mxGeometry>
        </mxCell>
        <mxCell id="HLyuylRKE7OGvqLbNBZI-89" value="&#39;0" style="rounded=1;whiteSpace=wrap;html=1;" vertex="1" parent="1">
          <mxGeometry x="585" y="80" width="20" height="20" as="geometry" />
        </mxCell>
        <mxCell id="HLyuylRKE7OGvqLbNBZI-90" value="&#39;0" style="rounded=1;whiteSpace=wrap;html=1;" vertex="1" parent="1">
          <mxGeometry x="570" y="250" width="20" height="20" as="geometry" />
        </mxCell>
        <mxCell id="HLyuylRKE7OGvqLbNBZI-91" value="" style="endArrow=none;html=1;rounded=0;entryX=1;entryY=0.5;entryDx=0;entryDy=0;exitX=0.25;exitY=1;exitDx=0;exitDy=0;" edge="1" parent="1" source="HLyuylRKE7OGvqLbNBZI-83" target="HLyuylRKE7OGvqLbNBZI-89">
          <mxGeometry width="50" height="50" relative="1" as="geometry">
            <mxPoint x="635" y="210" as="sourcePoint" />
            <mxPoint x="685" y="160" as="targetPoint" />
          </mxGeometry>
        </mxCell>
        <mxCell id="HLyuylRKE7OGvqLbNBZI-92" value="" style="endArrow=none;html=1;rounded=0;entryX=0.5;entryY=0;entryDx=0;entryDy=0;exitX=0.25;exitY=1;exitDx=0;exitDy=0;" edge="1" parent="1" source="HLyuylRKE7OGvqLbNBZI-79" target="HLyuylRKE7OGvqLbNBZI-90">
          <mxGeometry width="50" height="50" relative="1" as="geometry">
            <mxPoint x="635" y="210" as="sourcePoint" />
            <mxPoint x="685" y="160" as="targetPoint" />
          </mxGeometry>
        </mxCell>
        <mxCell id="HLyuylRKE7OGvqLbNBZI-93" value="" style="endArrow=none;html=1;rounded=0;entryX=1;entryY=0.5;entryDx=0;entryDy=0;exitX=0;exitY=0.5;exitDx=0;exitDy=0;" edge="1" parent="1" source="HLyuylRKE7OGvqLbNBZI-53" target="HLyuylRKE7OGvqLbNBZI-19">
          <mxGeometry width="50" height="50" relative="1" as="geometry">
            <mxPoint x="440" y="240" as="sourcePoint" />
            <mxPoint x="490" y="190" as="targetPoint" />
          </mxGeometry>
        </mxCell>
        <mxCell id="HLyuylRKE7OGvqLbNBZI-95" value="" style="endArrow=none;html=1;rounded=0;exitX=1;exitY=0.5;exitDx=0;exitDy=0;entryX=0;entryY=0.5;entryDx=0;entryDy=0;" edge="1" parent="1" source="HLyuylRKE7OGvqLbNBZI-1" target="HLyuylRKE7OGvqLbNBZI-59">
          <mxGeometry width="50" height="50" relative="1" as="geometry">
            <mxPoint x="310" y="240" as="sourcePoint" />
            <mxPoint x="360" y="190" as="targetPoint" />
            <Array as="points">
              <mxPoint x="150" y="160" />
              <mxPoint x="150" y="120" />
              <mxPoint x="390" y="120" />
              <mxPoint x="390" y="210" />
            </Array>
          </mxGeometry>
        </mxCell>
        <mxCell id="HLyuylRKE7OGvqLbNBZI-97" value="N" style="rounded=1;whiteSpace=wrap;html=1;" vertex="1" parent="1">
          <mxGeometry x="425" y="240" width="20" height="20" as="geometry" />
        </mxCell>
        <mxCell id="HLyuylRKE7OGvqLbNBZI-98" value="" style="endArrow=none;html=1;rounded=0;entryX=0;entryY=0.5;entryDx=0;entryDy=0;exitX=1;exitY=0.5;exitDx=0;exitDy=0;" edge="1" parent="1" source="HLyuylRKE7OGvqLbNBZI-2" target="HLyuylRKE7OGvqLbNBZI-97">
          <mxGeometry width="50" height="50" relative="1" as="geometry">
            <mxPoint x="420" y="350" as="sourcePoint" />
            <mxPoint x="470" y="300" as="targetPoint" />
            <Array as="points">
              <mxPoint x="140" y="240" />
              <mxPoint x="140" y="270" />
              <mxPoint x="390" y="270" />
              <mxPoint x="390" y="250" />
            </Array>
          </mxGeometry>
        </mxCell>
        <mxCell id="HLyuylRKE7OGvqLbNBZI-99" value="&lt;font style=&quot;font-size: 6px;&quot;&gt;Do N times&lt;/font&gt;" style="text;html=1;align=center;verticalAlign=middle;whiteSpace=wrap;rounded=0;" vertex="1" parent="1">
          <mxGeometry x="445" y="230" width="35" height="10" as="geometry" />
        </mxCell>
        <mxCell id="HLyuylRKE7OGvqLbNBZI-102" value="q2" style="rounded=1;whiteSpace=wrap;html=1;" vertex="1" parent="1">
          <mxGeometry x="785" y="120" width="20" height="20" as="geometry" />
        </mxCell>
        <mxCell id="HLyuylRKE7OGvqLbNBZI-103" value="q1" style="rounded=1;whiteSpace=wrap;html=1;" vertex="1" parent="1">
          <mxGeometry x="785" y="150" width="20" height="20" as="geometry" />
        </mxCell>
        <mxCell id="HLyuylRKE7OGvqLbNBZI-105" value="q2" style="rounded=1;whiteSpace=wrap;html=1;" vertex="1" parent="1">
          <mxGeometry x="860" y="120" width="20" height="20" as="geometry" />
        </mxCell>
        <mxCell id="HLyuylRKE7OGvqLbNBZI-106" value="q1" style="rounded=1;whiteSpace=wrap;html=1;" vertex="1" parent="1">
          <mxGeometry x="860" y="150" width="20" height="20" as="geometry" />
        </mxCell>
        <mxCell id="HLyuylRKE7OGvqLbNBZI-107" value="cosine" style="rounded=1;whiteSpace=wrap;html=1;" vertex="1" parent="1">
          <mxGeometry x="860" y="180" width="20" height="20" as="geometry" />
        </mxCell>
        <mxCell id="HLyuylRKE7OGvqLbNBZI-108" value="" style="endArrow=none;html=1;rounded=0;entryX=1;entryY=0.5;entryDx=0;entryDy=0;exitX=0;exitY=0.5;exitDx=0;exitDy=0;" edge="1" parent="1" source="HLyuylRKE7OGvqLbNBZI-105" target="HLyuylRKE7OGvqLbNBZI-102">
          <mxGeometry width="50" height="50" relative="1" as="geometry">
            <mxPoint x="860" y="210" as="sourcePoint" />
            <mxPoint x="910" y="160" as="targetPoint" />
          </mxGeometry>
        </mxCell>
        <mxCell id="HLyuylRKE7OGvqLbNBZI-109" value="" style="endArrow=none;html=1;rounded=0;entryX=1;entryY=0.5;entryDx=0;entryDy=0;exitX=0;exitY=0.5;exitDx=0;exitDy=0;" edge="1" parent="1" source="HLyuylRKE7OGvqLbNBZI-106" target="HLyuylRKE7OGvqLbNBZI-103">
          <mxGeometry width="50" height="50" relative="1" as="geometry">
            <mxPoint x="860" y="210" as="sourcePoint" />
            <mxPoint x="910" y="160" as="targetPoint" />
          </mxGeometry>
        </mxCell>
        <mxCell id="HLyuylRKE7OGvqLbNBZI-110" value="cosine" style="rounded=1;whiteSpace=wrap;html=1;" vertex="1" parent="1">
          <mxGeometry x="330" y="190" width="20" height="20" as="geometry" />
        </mxCell>
        <mxCell id="HLyuylRKE7OGvqLbNBZI-111" value="scale_fact" style="rounded=1;whiteSpace=wrap;html=1;" vertex="1" parent="1">
          <mxGeometry x="860" y="250" width="20" height="20" as="geometry" />
        </mxCell>
        <mxCell id="HLyuylRKE7OGvqLbNBZI-112" value="scale_fact" style="rounded=1;whiteSpace=wrap;html=1;" vertex="1" parent="1">
          <mxGeometry x="290" y="250" width="20" height="20" as="geometry" />
        </mxCell>
        <mxCell id="HLyuylRKE7OGvqLbNBZI-113" value="*" style="ellipse;whiteSpace=wrap;html=1;" vertex="1" parent="1">
          <mxGeometry x="940" y="120" width="20" height="20" as="geometry" />
        </mxCell>
        <mxCell id="HLyuylRKE7OGvqLbNBZI-114" value="" style="endArrow=none;html=1;rounded=0;entryX=1;entryY=0.5;entryDx=0;entryDy=0;exitX=0;exitY=0.5;exitDx=0;exitDy=0;" edge="1" parent="1" source="HLyuylRKE7OGvqLbNBZI-113" target="HLyuylRKE7OGvqLbNBZI-105">
          <mxGeometry width="50" height="50" relative="1" as="geometry">
            <mxPoint x="960" y="250" as="sourcePoint" />
            <mxPoint x="1010" y="200" as="targetPoint" />
          </mxGeometry>
        </mxCell>
        <mxCell id="HLyuylRKE7OGvqLbNBZI-115" value="" style="endArrow=none;html=1;rounded=0;entryX=1;entryY=0.5;entryDx=0;entryDy=0;exitX=0;exitY=1;exitDx=0;exitDy=0;" edge="1" parent="1" source="HLyuylRKE7OGvqLbNBZI-113" target="HLyuylRKE7OGvqLbNBZI-107">
          <mxGeometry width="50" height="50" relative="1" as="geometry">
            <mxPoint x="960" y="250" as="sourcePoint" />
            <mxPoint x="1010" y="200" as="targetPoint" />
            <Array as="points">
              <mxPoint x="920" y="137" />
              <mxPoint x="920" y="190" />
            </Array>
          </mxGeometry>
        </mxCell>
        <mxCell id="HLyuylRKE7OGvqLbNBZI-116" value="-" style="ellipse;whiteSpace=wrap;html=1;" vertex="1" parent="1">
          <mxGeometry x="1000" y="120" width="20" height="20" as="geometry" />
        </mxCell>
        <mxCell id="HLyuylRKE7OGvqLbNBZI-117" value="" style="endArrow=none;html=1;rounded=0;exitX=1;exitY=0.5;exitDx=0;exitDy=0;entryX=0;entryY=0.5;entryDx=0;entryDy=0;" edge="1" parent="1" source="HLyuylRKE7OGvqLbNBZI-106" target="HLyuylRKE7OGvqLbNBZI-116">
          <mxGeometry width="50" height="50" relative="1" as="geometry">
            <mxPoint x="960" y="220" as="sourcePoint" />
            <mxPoint x="1010" y="170" as="targetPoint" />
            <Array as="points">
              <mxPoint x="980" y="160" />
              <mxPoint x="980" y="130" />
            </Array>
          </mxGeometry>
        </mxCell>
        <mxCell id="HLyuylRKE7OGvqLbNBZI-118" value="" style="endArrow=none;html=1;rounded=0;entryX=1;entryY=0.5;entryDx=0;entryDy=0;exitX=0;exitY=1;exitDx=0;exitDy=0;" edge="1" parent="1" source="HLyuylRKE7OGvqLbNBZI-116" target="HLyuylRKE7OGvqLbNBZI-113">
          <mxGeometry width="50" height="50" relative="1" as="geometry">
            <mxPoint x="960" y="220" as="sourcePoint" />
            <mxPoint x="1010" y="170" as="targetPoint" />
            <Array as="points">
              <mxPoint x="970" y="137" />
              <mxPoint x="970" y="130" />
            </Array>
          </mxGeometry>
        </mxCell>
        <mxCell id="HLyuylRKE7OGvqLbNBZI-119" value="&lt;font style=&quot;font-size: 6px;&quot;&gt;&quot;q1-(q2*cos)&quot;&lt;/font&gt;" style="text;html=1;align=center;verticalAlign=middle;whiteSpace=wrap;rounded=0;" vertex="1" parent="1">
          <mxGeometry x="960" y="110" width="40" height="10" as="geometry" />
        </mxCell>
        <mxCell id="HLyuylRKE7OGvqLbNBZI-127" value="" style="endArrow=none;html=1;rounded=0;entryX=1;entryY=0.5;entryDx=0;entryDy=0;exitX=0;exitY=0.5;exitDx=0;exitDy=0;" edge="1" parent="1" source="HLyuylRKE7OGvqLbNBZI-49" target="HLyuylRKE7OGvqLbNBZI-116">
          <mxGeometry width="50" height="50" relative="1" as="geometry">
            <mxPoint x="1040" y="130" as="sourcePoint" />
            <mxPoint x="1040" y="150" as="targetPoint" />
          </mxGeometry>
        </mxCell>
        <mxCell id="HLyuylRKE7OGvqLbNBZI-129" value="" style="endArrow=none;html=1;rounded=0;entryX=1;entryY=0.5;entryDx=0;entryDy=0;exitX=0;exitY=0.5;exitDx=0;exitDy=0;" edge="1" parent="1" source="HLyuylRKE7OGvqLbNBZI-133" target="HLyuylRKE7OGvqLbNBZI-105">
          <mxGeometry width="50" height="50" relative="1" as="geometry">
            <mxPoint x="1040" y="160" as="sourcePoint" />
            <mxPoint x="1040" y="150" as="targetPoint" />
            <Array as="points">
              <mxPoint x="1010" y="165" />
              <mxPoint x="1010" y="150" />
              <mxPoint x="900" y="150" />
              <mxPoint x="900" y="130" />
            </Array>
          </mxGeometry>
        </mxCell>
        <mxCell id="HLyuylRKE7OGvqLbNBZI-131" value="&lt;font style=&quot;font-size: 6px;&quot;&gt;real &amp;amp; img&lt;/font&gt;" style="text;html=1;align=center;verticalAlign=middle;whiteSpace=wrap;rounded=0;" vertex="1" parent="1">
          <mxGeometry x="1030" y="100" width="40" height="10" as="geometry" />
        </mxCell>
        <mxCell id="HLyuylRKE7OGvqLbNBZI-133" value="*" style="ellipse;whiteSpace=wrap;html=1;" vertex="1" parent="1">
          <mxGeometry x="1040" y="155" width="20" height="20" as="geometry" />
        </mxCell>
        <mxCell id="HLyuylRKE7OGvqLbNBZI-134" value="sine" style="rounded=1;whiteSpace=wrap;html=1;" vertex="1" parent="1">
          <mxGeometry x="860" y="210" width="20" height="20" as="geometry" />
        </mxCell>
        <mxCell id="HLyuylRKE7OGvqLbNBZI-135" value="" style="endArrow=none;html=1;rounded=0;exitX=1;exitY=0.5;exitDx=0;exitDy=0;entryX=0;entryY=1;entryDx=0;entryDy=0;" edge="1" parent="1" source="HLyuylRKE7OGvqLbNBZI-134" target="HLyuylRKE7OGvqLbNBZI-133">
          <mxGeometry width="50" height="50" relative="1" as="geometry">
            <mxPoint x="990" y="230" as="sourcePoint" />
            <mxPoint x="1040" y="180" as="targetPoint" />
            <Array as="points">
              <mxPoint x="940" y="220" />
              <mxPoint x="940" y="170" />
            </Array>
          </mxGeometry>
        </mxCell>
        <mxCell id="HLyuylRKE7OGvqLbNBZI-136" value="" style="endArrow=none;html=1;rounded=0;entryX=1;entryY=0.5;entryDx=0;entryDy=0;exitX=0;exitY=0.5;exitDx=0;exitDy=0;" edge="1" parent="1" source="HLyuylRKE7OGvqLbNBZI-50" target="HLyuylRKE7OGvqLbNBZI-133">
          <mxGeometry width="50" height="50" relative="1" as="geometry">
            <mxPoint x="990" y="230" as="sourcePoint" />
            <mxPoint x="1040" y="180" as="targetPoint" />
            <Array as="points">
              <mxPoint x="1110" y="180" />
              <mxPoint x="1110" y="165" />
            </Array>
          </mxGeometry>
        </mxCell>
        <mxCell id="HLyuylRKE7OGvqLbNBZI-137" value="" style="rounded=1;whiteSpace=wrap;html=1;" vertex="1" parent="1">
          <mxGeometry x="1090" y="220" width="30" height="40" as="geometry" />
        </mxCell>
        <mxCell id="HLyuylRKE7OGvqLbNBZI-138" value="magn" style="text;html=1;align=center;verticalAlign=middle;whiteSpace=wrap;rounded=0;" vertex="1" parent="1">
          <mxGeometry x="1090" y="210" width="20" height="10" as="geometry" />
        </mxCell>
        <mxCell id="HLyuylRKE7OGvqLbNBZI-141" value="" style="endArrow=none;html=1;rounded=0;entryX=1;entryY=0.5;entryDx=0;entryDy=0;exitX=0;exitY=0.25;exitDx=0;exitDy=0;" edge="1" parent="1" source="HLyuylRKE7OGvqLbNBZI-137" target="HLyuylRKE7OGvqLbNBZI-49">
          <mxGeometry width="50" height="50" relative="1" as="geometry">
            <mxPoint x="1110" y="200" as="sourcePoint" />
            <mxPoint x="1160" y="150" as="targetPoint" />
            <Array as="points">
              <mxPoint x="1070" y="230" />
              <mxPoint x="1070" y="200" />
              <mxPoint x="1210" y="200" />
              <mxPoint x="1210" y="130" />
            </Array>
          </mxGeometry>
        </mxCell>
        <mxCell id="HLyuylRKE7OGvqLbNBZI-143" value="" style="endArrow=none;html=1;rounded=0;entryX=1;entryY=0.5;entryDx=0;entryDy=0;exitX=0;exitY=0.75;exitDx=0;exitDy=0;" edge="1" parent="1" source="HLyuylRKE7OGvqLbNBZI-137" target="HLyuylRKE7OGvqLbNBZI-50">
          <mxGeometry width="50" height="50" relative="1" as="geometry">
            <mxPoint x="1110" y="200" as="sourcePoint" />
            <mxPoint x="1160" y="150" as="targetPoint" />
            <Array as="points">
              <mxPoint x="1040" y="250" />
              <mxPoint x="1040" y="210" />
              <mxPoint x="1200" y="210" />
              <mxPoint x="1200" y="180" />
            </Array>
          </mxGeometry>
        </mxCell>
        <mxCell id="HLyuylRKE7OGvqLbNBZI-144" value="" style="endArrow=none;html=1;rounded=0;exitX=1;exitY=0.5;exitDx=0;exitDy=0;entryX=0;entryY=0.75;entryDx=0;entryDy=0;" edge="1" parent="1" source="HLyuylRKE7OGvqLbNBZI-137" target="HLyuylRKE7OGvqLbNBZI-51">
          <mxGeometry width="50" height="50" relative="1" as="geometry">
            <mxPoint x="1110" y="200" as="sourcePoint" />
            <mxPoint x="1160" y="150" as="targetPoint" />
          </mxGeometry>
        </mxCell>
        <mxCell id="HLyuylRKE7OGvqLbNBZI-145" value="sine" style="rounded=1;whiteSpace=wrap;html=1;" vertex="1" parent="1">
          <mxGeometry x="330" y="220" width="20" height="20" as="geometry" />
        </mxCell>
        <mxCell id="HLyuylRKE7OGvqLbNBZI-146" value="" style="endArrow=none;html=1;rounded=0;entryX=1;entryY=0.5;entryDx=0;entryDy=0;exitX=0;exitY=0.5;exitDx=0;exitDy=0;" edge="1" parent="1" source="HLyuylRKE7OGvqLbNBZI-107" target="HLyuylRKE7OGvqLbNBZI-110">
          <mxGeometry width="50" height="50" relative="1" as="geometry">
            <mxPoint x="650" y="270" as="sourcePoint" />
            <mxPoint x="700" y="220" as="targetPoint" />
            <Array as="points">
              <mxPoint x="830" y="190" />
              <mxPoint x="830" y="320" />
              <mxPoint x="380" y="320" />
              <mxPoint x="380" y="200" />
            </Array>
          </mxGeometry>
        </mxCell>
        <mxCell id="HLyuylRKE7OGvqLbNBZI-147" value="" style="endArrow=none;html=1;rounded=0;entryX=0;entryY=0.5;entryDx=0;entryDy=0;exitX=1;exitY=0.5;exitDx=0;exitDy=0;" edge="1" parent="1" source="HLyuylRKE7OGvqLbNBZI-145" target="HLyuylRKE7OGvqLbNBZI-134">
          <mxGeometry width="50" height="50" relative="1" as="geometry">
            <mxPoint x="650" y="270" as="sourcePoint" />
            <mxPoint x="700" y="220" as="targetPoint" />
            <Array as="points">
              <mxPoint x="370" y="230" />
              <mxPoint x="370" y="330" />
              <mxPoint x="840" y="330" />
              <mxPoint x="840" y="220" />
            </Array>
          </mxGeometry>
        </mxCell>
        <mxCell id="HLyuylRKE7OGvqLbNBZI-148" value="" style="endArrow=none;html=1;rounded=0;entryX=0.5;entryY=1;entryDx=0;entryDy=0;exitX=0;exitY=0.5;exitDx=0;exitDy=0;" edge="1" parent="1" source="HLyuylRKE7OGvqLbNBZI-111" target="HLyuylRKE7OGvqLbNBZI-112">
          <mxGeometry width="50" height="50" relative="1" as="geometry">
            <mxPoint x="650" y="270" as="sourcePoint" />
            <mxPoint x="700" y="220" as="targetPoint" />
            <Array as="points">
              <mxPoint x="850" y="260" />
              <mxPoint x="850" y="340" />
              <mxPoint x="360" y="340" />
              <mxPoint x="360" y="280" />
              <mxPoint x="300" y="280" />
            </Array>
          </mxGeometry>
        </mxCell>
      </root>
    </mxGraphModel>
  </diagram>
</mxfile>
